<svg xmlns="http://www.w3.org/2000/svg" xmlns:xlink="http://www.w3.org/1999/xlink" version="1.1" x="0px" y="0px" width="100px" height="100px" viewBox="0 0 100 100" enable-background="new 0 0 100 100" xml:space="preserve">
<g id="Captions">
	<rect x="-192" width="185" height="99"/>
	<rect y="-36" width="100" height="30"/>
	<text transform="matrix(1 0 0 1 66 -19.5)" fill="#000000" font-family="'Helvetica'" font-size="2.4">http://thenounproject.com</text>
	<text transform="matrix(1 0 0 1 7.166 -24.5)"><tspan x="0" y="0" fill="#000000" font-family="'Helvetica-Bold'" font-size="6.1578">The Noun Project</tspan><tspan x="1.12" y="4.8" fill="#000000" font-family="'Helvetica-Bold'" font-size="4">Icon Template</tspan></text>
	<text transform="matrix(1 0 0 1 -178.5 10.5)" fill="#000000" font-family="'Helvetica-Bold'" font-size="6.1578">Reminders</text>
	<line fill="#000000" stroke="#FFFFFF" stroke-miterlimit="10" x1="8" y1="-14.5" x2="18" y2="-14.5"/>
	<line fill="#000000" stroke="#FFFFFF" stroke-miterlimit="10" x1="-179" y1="16.5" x2="-162" y2="16.5"/>
	<g>
		<g>
			<g>
				<rect x="-170.802" y="31.318" fill="#000000" width="8.721" height="8.642"/>
				<path fill="#000000" d="M-164.455,42.312h4.747v-4.703h-4.747V42.312z M-159.266,42.749h-5.63V37.17h5.63V42.749      L-159.266,42.749z M-166.221,44.062h8.279v-8.203h-8.279V44.062L-166.221,44.062z M-157.5,44.5h-9.163v-9.079h9.163V44.5      L-157.5,44.5z"/>
				<polygon fill="#000000" points="-166.149,44.133 -166.292,43.991 -158.013,35.787 -157.871,35.929     "/>
			</g>
		</g>
	</g>
	<rect x="-179" y="58" fill="none" width="35" height="32.5"/>
	<text transform="matrix(1 0 0 1 -179 60.1572)"><tspan x="0" y="0" fill="#000000" font-family="'Helvetica-Bold'" font-size="3">Strokes</tspan><tspan x="0" y="5" fill="#000000" font-family="'Helvetica'" font-size="2.4">Try to keep strokes at 4px</tspan><tspan x="0" y="10" fill="#000000" font-family="'Helvetica'" font-size="2.4">Minimum stroke weight is 2px</tspan><tspan x="0" y="14.5" fill="#000000" font-family="'Helvetica'" font-size="2.4">For thicker strokes use even </tspan><tspan x="0" y="17.5" fill="#000000" font-family="'Helvetica'" font-size="2.4">numbers: 6px, 8px etc.</tspan><tspan x="0" y="22" fill="#000000" font-family="'Helvetica-Bold'" font-size="2.4">Remember to expand strokes </tspan><tspan x="0" y="25" fill="#000000" font-family="'Helvetica-Bold'" font-size="2.4">before saving as an SVG </tspan></text>
	<rect x="-136.5" y="58" fill="none" width="35" height="32.5"/>
	<text transform="matrix(1 0 0 1 -136.5 60.1572)"><tspan x="0" y="0" fill="#000000" font-family="'Helvetica-Bold'" font-size="3">Size</tspan><tspan x="0" y="5" fill="#000000" font-family="'Helvetica'" font-size="2.4">Cannot be wider or taller than </tspan><tspan x="0" y="8.5" fill="#000000" font-family="'Helvetica'" font-size="2.4">100px (artboard size)</tspan><tspan x="0" y="13.5" fill="#000000" font-family="'Helvetica'" font-size="2.4">Scale your icon to fill as much of </tspan><tspan x="0" y="16.5" fill="#000000" font-family="'Helvetica'" font-size="2.4">the artboard as possible</tspan></text>
	<rect x="-94" y="58" fill="none" width="35" height="32.5"/>
	<text transform="matrix(1 0 0 1 -94 60.1572)"><tspan x="0" y="0" fill="#000000" font-family="'Helvetica-Bold'" font-size="3">Ungroup</tspan><tspan x="0" y="5" fill="#000000" font-family="'Helvetica'" font-size="2.4">If your design has more than one </tspan><tspan x="0" y="8" fill="#000000" font-family="'Helvetica'" font-size="2.4">shape, make sure to ungroup</tspan></text>
	<rect x="-50" y="58" fill="none" width="35" height="32.5"/>
	<text transform="matrix(1 0 0 1 -50 60.1572)"><tspan x="0" y="0" fill="#000000" font-family="'Helvetica-Bold'" font-size="3">Save as</tspan><tspan x="0" y="5" fill="#000000" font-family="'Helvetica'" font-size="2.4">Save as .SVG and make sure </tspan><tspan x="0" y="8" fill="#000000" font-family="'Helvetica'" font-size="2.4">&#8220;Use Artboards&#8221; is checked</tspan></text>
	<text transform="matrix(1.0074 0 0 1 -125.542 30.5933)" fill="#000000" font-family="'Helvetica'" font-size="2.5731">100px</text>
	<text transform="matrix(1.0074 0 0 1 -41 39)" fill="#000000" font-family="'Helvetica-Bold'" font-size="5.1462">.SVG</text>
	<rect x="-126.514" y="34.815" fill="#000000" width="10.261" height="10.185"/>
	<rect x="-126.477" y="31.766" fill="#000000" width="0.522" height="2.337"/>
	<rect x="-116.812" y="31.766" fill="#000000" width="0.523" height="2.337"/>
	<rect x="-127" y="32.337" fill="#000000" width="11.233" height="0.572"/>
	<g>
		<rect x="-83.805" y="33.844" fill="#000000" width="10.305" height="10.156"/>
		<rect x="-76.809" y="28.707" fill="#000000" width="3.308" height="3.261"/>
	</g>
	<rect x="-178.5" y="22.5" fill="#000000" stroke="#FFFFFF" stroke-miterlimit="10" width="30" height="30"/>
	<rect x="-136.5" y="22.5" fill="#000000" stroke="#FFFFFF" stroke-miterlimit="10" width="30" height="30"/>
	<rect x="-93.5" y="22.5" fill="#000000" stroke="#FFFFFF" stroke-miterlimit="10" width="30" height="30"/>
	<rect x="-49.5" y="22.5" fill="#000000" stroke="#FFFFFF" stroke-miterlimit="10" width="30" height="30"/>
</g>
<g id="Your_Icon">
	<g>
		<path d="M93.287,36.991C94.329,36.074,95,34.747,95,33.25c0-2.761-2.238-5-5-5c-0.062,0-0.122,0.017-0.186,0.019    C85.676,20.36,79.291,13.816,71.499,9.485C71.49,6.731,69.257,4.5,66.5,4.5c-1.325,0-2.522,0.525-3.418,1.368    C58.754,4.503,54.155,3.75,49.375,3.75c-4.498,0-8.839,0.665-12.943,1.879C35.535,4.779,34.332,4.25,33,4.25    c-2.698,0-4.883,2.143-4.98,4.817C20.055,13.3,13.496,19.818,9.215,27.753C6.471,27.773,4.25,30.001,4.25,32.75    c0,1.371,0.555,2.612,1.449,3.516C4.448,40.421,3.75,44.813,3.75,49.375c0,4.709,0.726,9.245,2.051,13.519    C4.85,63.804,4.25,65.079,4.25,66.5c0,2.761,2.239,5,5,5c0.076,0,0.146-0.019,0.221-0.022c4.375,7.88,11.01,14.328,19.035,18.465    c0,0.02-0.006,0.038-0.006,0.058c0,2.761,2.239,5,5,5c1.473,0,2.783-0.648,3.699-1.661C41.076,94.411,45.156,95,49.375,95    c4.649,0,9.131-0.706,13.355-1.999c0.917,1.062,2.257,1.749,3.77,1.749c2.762,0,5-2.239,5-5c0-0.161-0.032-0.313-0.047-0.471    c7.564-4.196,13.812-10.469,17.963-18.063c0.113,0.008,0.221,0.034,0.334,0.034c2.762,0,5-2.239,5-5    c0-1.487-0.662-2.809-1.693-3.724C94.311,58.36,95,53.95,95,49.375C95,45.081,94.396,40.93,93.287,36.991z M85.543,63.567    L57.586,52.013C57.854,51.181,58,50.296,58,49.375c0-0.749-0.105-1.47-0.283-2.163l27.932-11.545    c0.539,0.967,1.382,1.739,2.4,2.18c1.094,3.654,1.701,7.518,1.701,11.528c0,4.278-0.682,8.393-1.915,12.261    C86.889,62.032,86.09,62.712,85.543,63.567z M93.201,33.25c0,1.767-1.434,3.2-3.201,3.2c-1.767,0-3.199-1.434-3.199-3.2    s1.433-3.2,3.199-3.2C91.768,30.05,93.201,31.483,93.201,33.25z M85.426,31.243C85.156,31.858,85,32.535,85,33.25    c0,0.243,0.039,0.478,0.072,0.711L57.087,45.528c-0.708-1.415-1.789-2.605-3.12-3.445l11.6-27.677    C65.87,14.463,66.181,14.5,66.5,14.5c0.808,0,1.559-0.209,2.234-0.549C75.904,17.879,81.738,23.927,85.426,31.243z M54.588,49.375    c0,2.879-2.334,5.213-5.213,5.213s-5.213-2.334-5.213-5.213s2.334-5.213,5.213-5.213S54.588,46.496,54.588,49.375z M66.5,6.3    c1.768,0,3.201,1.433,3.201,3.2s-1.434,3.2-3.201,3.2c-1.767,0-3.199-1.433-3.199-3.2S64.733,6.3,66.5,6.3z M61.721,10.938    c0.359,1.18,1.141,2.176,2.174,2.81l-11.543,27.54c-0.93-0.342-1.929-0.538-2.977-0.538c-0.834,0-1.637,0.124-2.4,0.346    L35.691,13.453c0.984-0.631,1.727-1.597,2.08-2.735C41.446,9.61,45.338,9,49.375,9C53.684,9,57.828,9.688,61.721,10.938z M33,6.05    c1.768,0,3.201,1.433,3.201,3.2s-1.434,3.2-3.201,3.2c-1.767,0-3.199-1.433-3.199-3.2S31.233,6.05,33,6.05z M30.65,13.638    c0.704,0.377,1.496,0.612,2.35,0.612c0.354,0,0.699-0.039,1.031-0.109L45.309,41.77c-1.546,0.829-2.805,2.116-3.605,3.679    L14.066,34.024c0.107-0.408,0.184-0.831,0.184-1.274c0-0.809-0.209-1.562-0.551-2.237C17.514,23.317,23.442,17.427,30.65,13.638z     M10.975,61.812C9.703,57.893,9,53.718,9,49.375c0-4.14,0.646-8.124,1.806-11.884c1.015-0.336,1.888-0.983,2.5-1.836    l27.751,11.471c-0.193,0.718-0.307,1.469-0.307,2.249c0,0.952,0.16,1.864,0.445,2.722l-27.871,11.52    C12.744,62.8,11.928,62.165,10.975,61.812z M9.25,29.55c1.768,0,3.201,1.434,3.201,3.2s-1.434,3.2-3.201,3.2    c-1.767,0-3.199-1.434-3.199-3.2S7.483,29.55,9.25,29.55z M6.051,66.5c0-1.767,1.433-3.2,3.199-3.2c1.768,0,3.201,1.434,3.201,3.2    s-1.434,3.2-3.201,3.2C7.483,69.7,6.051,68.267,6.051,66.5z M13.832,68.493c0.267-0.611,0.418-1.283,0.418-1.993    c0-0.435-0.072-0.849-0.176-1.249l27.867-11.518c0.875,1.49,2.184,2.69,3.754,3.434L34.009,85.052C33.84,85.034,33.675,85,33.5,85    c-0.771,0-1.494,0.189-2.146,0.503C23.902,81.776,17.775,75.812,13.832,68.493z M33.5,93.2c-1.767,0-3.199-1.434-3.199-3.2    s1.433-3.2,3.199-3.2c1.768,0,3.201,1.434,3.201,3.2S35.268,93.2,33.5,93.2z M38.133,88.157c-0.455-1.129-1.306-2.054-2.387-2.602    l11.648-27.793c0.637,0.15,1.299,0.237,1.98,0.237c0.84,0,1.648-0.126,2.416-0.35l11.537,28.265    c-0.59,0.488-1.064,1.107-1.385,1.811c-3.957,1.3-8.176,2.024-12.568,2.024C45.473,89.75,41.703,89.19,38.133,88.157z M66.5,92.95    c-1.767,0-3.199-1.434-3.199-3.2s1.433-3.2,3.199-3.2c1.768,0,3.201,1.434,3.201,3.2S68.268,92.95,66.5,92.95z M68.197,85.065    C67.666,84.872,67.1,84.75,66.5,84.75c-0.56,0-1.09,0.113-1.592,0.283l-11.453-28.06c1.422-0.765,2.6-1.92,3.402-3.318    l27.999,11.573c-0.069,0.329-0.106,0.671-0.106,1.021c0,0.667,0.137,1.301,0.373,1.882C81.328,75.349,75.404,81.256,68.197,85.065    z M89.75,69.45c-1.767,0-3.199-1.434-3.199-3.2s1.433-3.2,3.199-3.2c1.768,0,3.201,1.434,3.201,3.2S91.518,69.45,89.75,69.45z"/>
		<circle cx="49.375" cy="49.375" r="3.5"/>
	</g>
</g>
</svg>